HIERARCHY
ROOT Hips
{
	OFFSET -338.882294 -555.210510 88.995560
	CHANNELS 6 Xposition Yposition Zposition Zrotation Yrotation Xrotation
	JOINT Spine
	{
		OFFSET 0.000000 2.080078 8.814247
		CHANNELS 6 Xposition Yposition Zposition Zrotation Yrotation Xrotation
		JOINT Spine1
		{
			OFFSET 0.000000 0.000000 8.844139
			CHANNELS 6 Xposition Yposition Zposition Zrotation Yrotation Xrotation
			JOINT Spine2
			{
				OFFSET 0.000000 0.000000 11.682266
				CHANNELS 6 Xposition Yposition Zposition Zrotation Yrotation Xrotation
				JOINT Spine3
				{
					OFFSET 0.000000 0.000000 11.746704
					CHANNELS 6 Xposition Yposition Zposition Zrotation Yrotation Xrotation
					JOINT Neck
					{
						OFFSET 0.000000 0.000000 17.658264
						CHANNELS 6 Xposition Yposition Zposition Zrotation Yrotation Xrotation
						JOINT Neck1
						{
							OFFSET 0.000000 0.000000 5.101517
							CHANNELS 6 Xposition Yposition Zposition Zrotation Yrotation Xrotation
							JOINT Head
							{
								OFFSET 0.000000 0.000000 5.101517
								CHANNELS 6 Xposition Yposition Zposition Zrotation Yrotation Xrotation
								JOINT HeadEnd
								{
									OFFSET 0.000000 0.000000 11.655090
									CHANNELS 6 Xposition Yposition Zposition Zrotation Yrotation Xrotation
									End Site
									{
										OFFSET 0.000000 0.000000 0.100006
									}
								}
							}
						}
					}
					JOINT RightShoulder
					{
						OFFSET -2.625397 0.000000 11.175217
						CHANNELS 6 Xposition Yposition Zposition Zrotation Yrotation Xrotation
						JOINT RightArm
						{
							OFFSET 0.000000 0.000000 10.434723
							CHANNELS 6 Xposition Yposition Zposition Zrotation Yrotation Xrotation
							JOINT RightForeArm
							{
								OFFSET 0.000000 0.000000 29.628418
								CHANNELS 6 Xposition Yposition Zposition Zrotation Yrotation Xrotation
								JOINT RightHand
								{
									OFFSET 0.000000 0.000000 22.857605
									CHANNELS 6 Xposition Yposition Zposition Zrotation Yrotation Xrotation
									JOINT RightHandThumb1
									{
										OFFSET -2.867310 -2.944275 3.959564
										CHANNELS 6 Xposition Yposition Zposition Zrotation Yrotation Xrotation
										JOINT RightHandThumb2
										{
											OFFSET 0.000000 0.000000 3.350403
											CHANNELS 6 Xposition Yposition Zposition Zrotation Yrotation Xrotation
											JOINT RightHandThumb3
											{
												OFFSET 0.000000 0.000000 3.756516
												CHANNELS 6 Xposition Yposition Zposition Zrotation Yrotation Xrotation
												JOINT RightHandThumb4
												{
													OFFSET 0.000000 0.000000 3.147339
													CHANNELS 6 Xposition Yposition Zposition Zrotation Yrotation Xrotation
													End Site
													{
														OFFSET 0.000000 0.000000 0.100006
													}
												}
											}
										}
									}
									JOINT RightHandIndex1
									{
										OFFSET -0.086761 -2.345276 10.030899
										CHANNELS 6 Xposition Yposition Zposition Zrotation Yrotation Xrotation
										JOINT RightHandIndex2
										{
											OFFSET 0.000000 0.000000 4.061096
											CHANNELS 6 Xposition Yposition Zposition Zrotation Yrotation Xrotation
											JOINT RightHandIndex3
											{
												OFFSET 0.000000 0.000000 3.248871
												CHANNELS 6 Xposition Yposition Zposition Zrotation Yrotation Xrotation
												JOINT RightHandIndex4
												{
													OFFSET 0.000000 0.000000 2.639709
													CHANNELS 6 Xposition Yposition Zposition Zrotation Yrotation Xrotation
													End Site
													{
														OFFSET 0.000000 0.000000 0.100006
													}
												}
											}
										}
									}
									JOINT RightHandMiddle1
									{
										OFFSET 0.104095 -0.006775 9.502945
										CHANNELS 6 Xposition Yposition Zposition Zrotation Yrotation Xrotation
										JOINT RightHandMiddle2
										{
											OFFSET 0.000000 0.000000 4.568726
											CHANNELS 6 Xposition Yposition Zposition Zrotation Yrotation Xrotation
											JOINT RightHandMiddle3
											{
												OFFSET 0.000000 0.000000 3.654984
												CHANNELS 6 Xposition Yposition Zposition Zrotation Yrotation Xrotation
												JOINT RightHandMiddle4
												{
													OFFSET 0.000000 0.000000 2.741241
													CHANNELS 6 Xposition Yposition Zposition Zrotation Yrotation Xrotation
													End Site
													{
														OFFSET 0.000000 0.000000 0.100006
													}
												}
											}
										}
									}
									JOINT RightHandRing1
									{
										OFFSET 0.086761 2.267456 8.921707
										CHANNELS 6 Xposition Yposition Zposition Zrotation Yrotation Xrotation
										JOINT RightHandRing2
										{
											OFFSET 0.000000 0.000000 4.061096
											CHANNELS 6 Xposition Yposition Zposition Zrotation Yrotation Xrotation
											JOINT RightHandRing3
											{
												OFFSET 0.000000 0.000000 3.654984
												CHANNELS 6 Xposition Yposition Zposition Zrotation Yrotation Xrotation
												JOINT RightHandRing4
												{
													OFFSET 0.000000 0.000000 2.741241
													CHANNELS 6 Xposition Yposition Zposition Zrotation Yrotation Xrotation
													End Site
													{
														OFFSET 0.000000 0.000000 0.100006
													}
												}
											}
										}
									}
									JOINT RightHandPinky1
									{
										OFFSET -0.173492 4.467224 7.976990
										CHANNELS 6 Xposition Yposition Zposition Zrotation Yrotation Xrotation
										JOINT RightHandPinky2
										{
											OFFSET 0.000000 0.000000 3.350403
											CHANNELS 6 Xposition Yposition Zposition Zrotation Yrotation Xrotation
											JOINT RightHandPinky3
											{
												OFFSET 0.000000 0.000000 2.842758
												CHANNELS 6 Xposition Yposition Zposition Zrotation Yrotation Xrotation
												JOINT RightHandPinky4
												{
													OFFSET 0.000000 0.000000 2.639709
													CHANNELS 6 Xposition Yposition Zposition Zrotation Yrotation Xrotation
													End Site
													{
														OFFSET 0.000000 0.000000 0.100006
													}
												}
											}
										}
									}
									JOINT RightForeArmEnd
									{
										OFFSET 0.000000 0.000000 0.000000
										CHANNELS 6 Xposition Yposition Zposition Zrotation Yrotation Xrotation
										End Site
										{
											OFFSET 0.000000 0.000000 0.100006
										}
									}
								}
								JOINT RightArmEnd
								{
									OFFSET 0.000000 0.000000 0.000000
									CHANNELS 6 Xposition Yposition Zposition Zrotation Yrotation Xrotation
									End Site
									{
										OFFSET 0.000000 0.000000 0.100006
									}
								}
							}
						}
					}
					JOINT LeftShoulder
					{
						OFFSET 2.625397 0.000000 11.175217
						CHANNELS 6 Xposition Yposition Zposition Zrotation Yrotation Xrotation
						JOINT LeftArm
						{
							OFFSET 0.000000 0.000000 10.813629
							CHANNELS 6 Xposition Yposition Zposition Zrotation Yrotation Xrotation
							JOINT LeftForeArm
							{
								OFFSET 0.000000 0.000000 28.724777
								CHANNELS 6 Xposition Yposition Zposition Zrotation Yrotation Xrotation
								JOINT LeftHand
								{
									OFFSET 0.644379 0.328857 25.716171
									CHANNELS 6 Xposition Yposition Zposition Zrotation Yrotation Xrotation
									JOINT LeftHandThumb1
									{
										OFFSET 2.867310 -2.944275 3.959564
										CHANNELS 6 Xposition Yposition Zposition Zrotation Yrotation Xrotation
										JOINT LeftHandThumb2
										{
											OFFSET 0.000000 0.000000 3.350403
											CHANNELS 6 Xposition Yposition Zposition Zrotation Yrotation Xrotation
											JOINT LeftHandThumb3
											{
												OFFSET 0.000000 0.000000 3.756516
												CHANNELS 6 Xposition Yposition Zposition Zrotation Yrotation Xrotation
												JOINT LeftHandThumb4
												{
													OFFSET 0.000000 0.000000 3.100006
													CHANNELS 6 Xposition Yposition Zposition Zrotation Yrotation Xrotation
													End Site
													{
														OFFSET 0.000000 0.000000 0.100006
													}
												}
											}
										}
									}
									JOINT LeftHandIndex1
									{
										OFFSET 0.086761 -2.345276 10.030899
										CHANNELS 6 Xposition Yposition Zposition Zrotation Yrotation Xrotation
										JOINT LeftHandIndex2
										{
											OFFSET 0.000000 0.000000 4.061096
											CHANNELS 6 Xposition Yposition Zposition Zrotation Yrotation Xrotation
											JOINT LeftHandIndex3
											{
												OFFSET 0.000000 0.000000 3.248871
												CHANNELS 6 Xposition Yposition Zposition Zrotation Yrotation Xrotation
												JOINT LeftHandIndex4
												{
													OFFSET 0.000000 0.000000 2.639709
													CHANNELS 6 Xposition Yposition Zposition Zrotation Yrotation Xrotation
													End Site
													{
														OFFSET 0.000000 0.000000 0.100006
													}
												}
											}
										}
									}
									JOINT LeftHandMiddle1
									{
										OFFSET -0.104095 -0.006775 9.502945
										CHANNELS 6 Xposition Yposition Zposition Zrotation Yrotation Xrotation
										JOINT LeftHandMiddle2
										{
											OFFSET 0.000000 0.000000 4.568726
											CHANNELS 6 Xposition Yposition Zposition Zrotation Yrotation Xrotation
											JOINT LeftHandMiddle3
											{
												OFFSET 0.000000 0.000000 3.654984
												CHANNELS 6 Xposition Yposition Zposition Zrotation Yrotation Xrotation
												JOINT LeftHandMiddle4
												{
													OFFSET 0.000000 0.000000 2.741241
													CHANNELS 6 Xposition Yposition Zposition Zrotation Yrotation Xrotation
													End Site
													{
														OFFSET 0.000000 0.000000 0.100006
													}
												}
											}
										}
									}
									JOINT LeftHandRing1
									{
										OFFSET -0.086761 2.267456 8.921707
										CHANNELS 6 Xposition Yposition Zposition Zrotation Yrotation Xrotation
										JOINT LeftHandRing2
										{
											OFFSET 0.000000 0.000000 4.061096
											CHANNELS 6 Xposition Yposition Zposition Zrotation Yrotation Xrotation
											JOINT LeftHandRing3
											{
												OFFSET 0.000000 0.000000 3.654984
												CHANNELS 6 Xposition Yposition Zposition Zrotation Yrotation Xrotation
												JOINT LeftHandRing4
												{
													OFFSET 0.000000 0.000000 2.741241
													CHANNELS 6 Xposition Yposition Zposition Zrotation Yrotation Xrotation
													End Site
													{
														OFFSET 0.000000 0.000000 0.100006
													}
												}
											}
										}
									}
									JOINT LeftHandPinky1
									{
										OFFSET 0.173492 4.467224 7.976990
										CHANNELS 6 Xposition Yposition Zposition Zrotation Yrotation Xrotation
										JOINT LeftHandPinky2
										{
											OFFSET 0.000000 0.000000 3.350403
											CHANNELS 6 Xposition Yposition Zposition Zrotation Yrotation Xrotation
											JOINT LeftHandPinky3
											{
												OFFSET 0.000000 0.000000 2.842758
												CHANNELS 6 Xposition Yposition Zposition Zrotation Yrotation Xrotation
												JOINT LeftHandPinky4
												{
													OFFSET 0.000000 0.000000 2.639709
													CHANNELS 6 Xposition Yposition Zposition Zrotation Yrotation Xrotation
													End Site
													{
														OFFSET 0.000000 0.000000 0.100006
													}
												}
											}
										}
									}
									JOINT LeftForeArmEnd
									{
										OFFSET 0.000000 0.000000 0.000000
										CHANNELS 6 Xposition Yposition Zposition Zrotation Yrotation Xrotation
										End Site
										{
											OFFSET 0.000000 0.000000 0.100006
										}
									}
								}
								JOINT LeftArmEnd
								{
									OFFSET 0.000000 0.000000 0.000000
									CHANNELS 6 Xposition Yposition Zposition Zrotation Yrotation Xrotation
									End Site
									{
										OFFSET 0.000000 0.000000 0.100006
									}
								}
							}
						}
					}
				}
			}
		}
	}
	JOINT RightUpLeg
	{
		OFFSET -11.289948 0.000000 0.000000
		CHANNELS 6 Xposition Yposition Zposition Zrotation Yrotation Xrotation
		JOINT RightLeg
		{
			OFFSET 0.000000 0.000000 -38.200321
			CHANNELS 6 Xposition Yposition Zposition Zrotation Yrotation Xrotation
			JOINT RightFoot
			{
				OFFSET 0.000000 0.000000 -39.900856
				CHANNELS 6 Xposition Yposition Zposition Zrotation Yrotation Xrotation
				JOINT RightToeBase
				{
					OFFSET 0.000000 -15.261658 0.000001
					CHANNELS 6 Xposition Yposition Zposition Zrotation Yrotation Xrotation
					JOINT RightToeBaseEnd
					{
						OFFSET 0.000000 -7.370728 0.000001
						CHANNELS 6 Xposition Yposition Zposition Zrotation Yrotation Xrotation
						End Site
						{
							OFFSET 0.000000 0.000000 0.100000
						}
					}
				}
				JOINT RightLegEnd
				{
					OFFSET 0.000000 0.000000 0.000000
					CHANNELS 6 Xposition Yposition Zposition Zrotation Yrotation Xrotation
					End Site
					{
						OFFSET 0.000000 0.000000 0.100000
					}
				}
			}
			JOINT RightUpLegEnd
			{
				OFFSET 0.000000 0.000000 0.000000
				CHANNELS 6 Xposition Yposition Zposition Zrotation Yrotation Xrotation
				End Site
				{
					OFFSET 0.000000 0.000000 0.099998
				}
			}
		}
	}
	JOINT LeftUpLeg
	{
		OFFSET 11.315674 0.000000 0.000000
		CHANNELS 6 Xposition Yposition Zposition Zrotation Yrotation Xrotation
		JOINT LeftLeg
		{
			OFFSET 0.000000 0.000000 -38.200321
			CHANNELS 6 Xposition Yposition Zposition Zrotation Yrotation Xrotation
			JOINT LeftFoot
			{
				OFFSET 0.000000 0.000000 -39.900856
				CHANNELS 6 Xposition Yposition Zposition Zrotation Yrotation Xrotation
				JOINT LeftToeBase
				{
					OFFSET 0.000000 -15.261658 0.000001
					CHANNELS 6 Xposition Yposition Zposition Zrotation Yrotation Xrotation
					JOINT LeftToeBaseEnd
					{
						OFFSET 0.000000 -7.539978 0.000001
						CHANNELS 6 Xposition Yposition Zposition Zrotation Yrotation Xrotation
						End Site
						{
							OFFSET 0.000000 0.000000 0.100000
						}
					}
				}
				JOINT LeftLegEnd
				{
					OFFSET 0.000000 0.000000 0.000000
					CHANNELS 6 Xposition Yposition Zposition Zrotation Yrotation Xrotation
					End Site
					{
						OFFSET 0.000000 0.000000 0.100000
					}
				}
			}
			JOINT LeftUpLegEnd
			{
				OFFSET 0.000000 0.000000 0.000000
				CHANNELS 6 Xposition Yposition Zposition Zrotation Yrotation Xrotation
				End Site
				{
					OFFSET 0.000000 0.000000 0.099998
				}
			}
		}
	}
}
MOTION
Frames: 2
Frame Time: 0.016667
-27.386292 9.584412 85.139305 36.231281 1.132117 -14.368114 0.000014 2.080061 8.814232 0.772195 -7.304787 10.834838 0.000006 0.000007 8.844151 0.799594 -1.487905 5.739040 0.000037 0.000028 11.682264 14.796345 2.674289 4.058355 -0.000040 -0.000036 11.746698 6.715062 6.802921 2.109062 0.000027 0.000022 17.658260 -21.167707 -16.029972 5.162716 -0.000003 0.000011 5.101541 -21.002096 1.471901 -8.256230 0.000010 0.000002 5.101555 -0.626792 -4.946062 -15.681860 0.000046 -0.000006 11.655074 0.000001 0.000001 0.000001 -2.625412 -0.000004 11.175228 22.853637 -65.845298 1.732695 0.000004 -0.000015 10.434753 -8.127668 -12.782524 59.335185 0.000004 0.000001 29.628420 8.660045 0.367051 91.051954 -0.000023 -0.000038 22.857609 -49.645643 36.772864 -6.710221 -2.867329 -2.944336 3.959541 31.933122 -15.385305 54.454919 0.000010 0.000000 3.350388 -8.550989 6.464782 -15.863212 -0.000044 0.000019 3.756479 -5.744563 4.744962 -10.902220 -0.000008 -0.000077 3.147333 0.000002 0.000000 0.000001 -0.086747 -2.345257 10.030912 -7.933488 4.019141 10.969374 -0.000014 0.000026 4.061135 0.505676 0.000000 0.000009 -0.000002 0.000029 3.248873 0.005377 0.000006 0.000006 -0.000031 -0.000019 2.639719 0.000004 -0.000000 0.000000 0.104081 -0.006763 9.502966 -2.749992 4.596268 7.788167 0.000013 -0.000014 4.568749 0.512912 -0.000020 -0.006855 -0.000010 -0.000001 3.654997 0.014803 0.000017 -0.005864 0.000005 -0.000006 2.741252 0.000001 -0.000001 -0.000000 0.086775 2.267477 8.921730 5.656549 6.078900 5.330570 -0.000003 0.000012 4.061098 -1.009248 0.000037 -0.000011 -0.000041 -0.000020 3.654990 -0.016603 -0.000001 0.001065 0.000007 -0.000054 2.741247 -0.000002 -0.000001 0.000003 -0.173489 4.467208 7.976990 14.668106 7.932223 4.625129 -0.000016 -0.000002 3.350378 -2.019021 -0.052508 0.001840 0.000005 -0.000015 2.842745 -0.016504 0.028241 0.000132 0.000022 -0.000002 2.639711 0.000001 -0.000000 -0.000000 0.000002 -0.000020 -0.000009 0.000001 -0.000002 0.000001 0.000030 0.000012 0.000004 0.000000 0.000001 -0.000002 2.625389 -0.000028 11.175235 -3.811893 73.419288 0.254009 0.000034 0.000000 10.813652 -30.047385 39.330592 -47.459081 0.000000 0.000084 28.724760 -24.817649 2.857467 39.557925 0.644336 0.328876 25.716156 5.719589 -35.442005 -9.722800 2.867302 -2.944321 3.959549 -32.521946 13.276045 57.994426 0.000010 0.000011 3.350403 4.043812 -3.528145 -7.797483 -0.000011 -0.000015 3.756521 2.756682 -2.509087 -5.386719 0.000006 0.000000 3.100010 -0.000000 0.000001 -0.000004 0.086723 -2.345280 10.030907 -11.914530 -15.978437 15.633724 -0.000007 0.000013 4.061107 0.519813 0.000240 0.000020 0.000003 0.000027 3.248870 0.018728 0.000001 0.000183 -0.000008 -0.000009 2.639725 0.000002 0.000001 0.000000 -0.104103 -0.006794 9.502960 -6.413034 -15.078671 12.450760 -0.000009 -0.000018 4.568741 0.518155 0.000050 0.000016 -0.000013 0.000020 3.654966 0.015601 0.000009 -0.001063 -0.000011 -0.000015 2.741257 0.000003 0.000000 0.000000 -0.086761 2.267443 8.921738 2.604370 -11.495295 8.914648 -0.000042 0.000017 4.061118 -1.017520 0.000055 0.000003 -0.000012 -0.000028 3.654991 -0.013578 0.000007 -0.000001 0.000007 -0.000007 2.741232 0.000001 -0.000001 -0.000001 0.173494 4.467232 7.976997 11.865136 -8.089065 7.273184 0.000007 -0.000007 3.350406 -2.000245 -0.000012 -0.000009 -0.000019 0.000017 2.842783 -0.000219 0.000001 -0.000018 -0.000012 0.000001 2.639704 0.000000 -0.000002 0.000003 -0.000014 -0.000009 0.000013 0.000001 0.000001 -0.000001 0.000044 0.000002 0.000010 0.000003 0.000002 0.000003 -11.289967 -0.000010 0.000008 -33.935686 0.347000 9.877764 0.000001 -0.000005 -38.200329 0.588415 -0.280413 25.461788 0.000012 -0.000008 -39.900856 -36.901258 -1.750666 2.818976 0.000007 -15.261707 0.000028 0.742179 -0.237512 -16.559488 -0.000004 -7.370720 0.000002 -0.000001 0.000001 0.000001 -0.000043 -0.000006 0.000003 0.000001 0.000002 0.000004 -0.000037 -0.000000 -0.000001 0.000000 0.000000 0.000001 11.315635 -0.000013 0.000023 -4.020691 -10.870115 -9.216949 -0.000019 0.000010 -38.200321 0.776710 -0.188795 13.620636 -0.000026 -0.000043 -39.900871 12.897633 3.060701 14.606822 -0.000028 -15.261725 0.000040 -0.291867 -1.726976 -24.742285 -0.000020 -7.540028 0.000002 -0.000002 0.000000 -0.000003 -0.000019 -0.000057 0.000002 -0.000001 -0.000000 0.000000 -0.000032 -0.000001 -0.000002 0.000000 -0.000001 0.000000 
-27.275452 9.521790 85.163193 36.753805 1.167708 -14.152508 -0.000001 2.080073 8.814220 0.808473 -7.268720 10.765748 0.000013 -0.000001 8.844135 0.816426 -1.481567 5.701427 0.000005 0.000003 11.682281 14.843965 2.708540 3.971158 0.000021 -0.000000 11.746712 6.742376 6.961537 2.067247 0.000000 -0.000007 17.658279 -21.451778 -16.255623 5.223205 -0.000004 0.000006 5.101513 -21.181482 1.439719 -8.361218 0.000009 0.000008 5.101553 -0.616353 -5.032874 -15.712603 -0.000013 0.000002 11.655066 -0.000000 0.000000 -0.000000 -2.625412 0.000004 11.175207 22.680780 -65.595901 1.718418 -0.000004 0.000004 10.434753 -7.573602 -12.338325 59.069518 -0.000009 -0.000015 29.628429 8.324607 0.370090 92.724394 -0.000084 -0.000008 22.857616 -49.947777 37.137579 -5.420849 -2.867290 -2.944260 3.959557 31.863854 -15.721420 53.915877 -0.000004 -0.000011 3.350403 -9.281725 6.858947 -17.127589 0.000010 -0.000008 3.756516 -6.223685 5.062932 -11.762336 0.000002 -0.000002 3.147322 0.000001 -0.000000 0.000001 -0.086721 -2.345242 10.030927 -8.381052 1.407916 11.309198 -0.000011 0.000004 4.061120 0.501417 -0.195270 0.026669 -0.000005 -0.000060 3.248875 0.001355 -0.187389 0.026778 -0.000034 0.000064 2.639731 -0.000001 0.000000 -0.000000 0.104138 -0.006779 9.502950 -3.189008 2.069829 8.160155 0.000000 0.000012 4.568727 0.508615 -0.000010 0.000010 -0.000007 0.000080 3.654990 0.009880 -0.000011 0.000004 0.000009 0.000006 2.741272 -0.000001 -0.000000 0.000001 0.086801 2.267464 8.921726 5.190716 3.537424 5.777230 0.000007 0.000010 4.061122 -1.006155 0.000008 -0.000006 0.000012 0.000030 3.655026 -0.011550 -0.000009 0.000604 0.000014 0.000045 2.741241 0.000003 0.000000 0.000000 -0.173458 4.467223 7.976990 14.160889 5.367401 5.133555 -0.000001 0.000062 3.350390 -2.013090 0.027972 -0.000990 0.000001 -0.000028 2.842754 -0.011310 -0.015065 0.000077 -0.000011 0.000002 2.639696 -0.000001 -0.000004 0.000002 0.000034 -0.000004 -0.000004 0.000001 -0.000000 0.000000 0.000025 -0.000005 0.000001 0.000000 0.000000 -0.000001 2.625420 -0.000031 11.175237 -3.846892 73.233903 0.255309 -0.000008 0.000031 10.813660 -29.547344 39.007326 -47.370668 0.000027 0.000031 28.724789 -25.016123 2.817058 39.796702 0.644348 0.328856 25.716133 5.576123 -35.376596 -9.096611 2.867249 -2.944290 3.959579 -32.365029 13.750569 57.171870 0.000011 0.000013 3.350403 5.044773 -4.261318 -9.634904 0.000001 0.000032 3.756531 3.426252 -3.050289 -6.647972 0.000006 0.000007 3.099991 -0.000000 0.000000 -0.000001 0.086761 -2.345284 10.030891 -11.169520 -12.758795 14.479402 -0.000016 -0.000001 4.061095 0.515128 0.000193 0.000011 -0.000019 -0.000009 3.248889 0.014293 0.000001 0.000123 -0.000011 -0.000021 2.639711 0.000003 -0.000001 -0.000001 -0.104076 -0.006779 9.502975 -5.770465 -11.911547 11.794280 0.000008 0.000014 4.568712 0.513551 -0.000007 0.000015 0.000025 -0.000007 3.654968 0.011637 0.000007 -0.000749 -0.000041 0.000001 2.741229 0.000000 -0.000002 0.000002 -0.086775 2.267447 8.921734 3.121501 -8.413646 9.060884 -0.000021 -0.000016 4.061139 -1.011239 0.000001 0.000003 -0.000012 0.000020 3.655008 -0.008710 0.000004 -0.000003 -0.000009 0.000029 2.741279 0.000005 -0.000001 0.000000 0.173495 4.467194 7.976994 12.278575 -5.426353 8.013554 -0.000008 -0.000025 3.350404 -2.000025 0.000013 0.000006 0.000000 0.000018 2.842765 -0.000022 -0.000002 0.000000 -0.000010 0.000008 2.639680 -0.000001 0.000000 0.000000 0.000012 0.000016 0.000007 -0.000003 -0.000000 0.000001 0.000023 -0.000020 -0.000001 0.000003 -0.000003 -0.000002 -11.289966 0.000014 -0.000029 -34.041280 0.263367 9.884689 -0.000032 0.000011 -38.200352 0.583029 -0.274635 25.221797 0.000041 -0.000008 -39.900860 -37.271997 -1.817684 2.945074 0.000021 -15.261709 0.000030 0.743145 -0.235149 -16.572762 0.000014 -7.370739 0.000000 0.000002 0.000001 0.000000 -0.000020 -0.000050 0.000002 -0.000002 -0.000000 -0.000001 -0.000031 0.000002 -0.000002 -0.000000 -0.000000 -0.000000 11.315624 -0.000029 -0.000004 -3.185692 -10.749628 -9.523007 -0.000026 0.000021 -38.200314 0.773788 -0.186858 13.451445 -0.000027 0.000019 -39.900871 13.064081 3.082088 14.606190 -0.000039 -15.261723 0.000031 -0.265340 -1.701504 -25.126299 -0.000026 -7.540023 0.000002 -0.000003 -0.000000 -0.000001 -0.000026 -0.000053 0.000001 -0.000001 0.000000 -0.000000 -0.000021 0.000002 -0.000004 -0.000000 -0.000000 -0.000000 
